<svg xmlns="http://www.w3.org/2000/svg" 
width="165" height="32" 
viewBox="0 0 165 32" fill="none"
>

<path 
d="M121.409 4.28138C121.409 3.8449 121.538 3.41822 121.781 3.0553C122.023 2.69238 122.368 2.40951 122.771 2.24248C123.174 2.07544 123.618 2.03174 124.046 2.11689C124.474 2.20205 124.867 2.41223 125.176 2.72087C125.485 3.02951 125.695 3.42274 125.78 3.85084C125.865 4.27893 125.822 4.72267 125.654 5.12593C125.487 5.52918 125.205 5.87385 124.842 6.11635C124.479 6.35885 124.052 6.48828 123.616 6.48828C123.032 6.48159 122.475 6.24693 122.062 5.8345C121.65 5.42207 121.415 4.86461 121.409 4.28138Z" fill="#FBB516"></path><path d="M94.5693 4.28138C94.577 3.69845 94.8119 3.14153 95.2241 2.7293C95.6364 2.31707 96.1933 2.08211 96.7762 2.07449C97.3645 2.07449 97.9286 2.30816 98.3445 2.7241C98.7605 3.14005 98.9942 3.70418 98.9942 4.29242C98.9942 4.88065 98.7605 5.44479 98.3445 5.86073C97.9286 6.27667 97.3645 6.51035 96.7762 6.51035C96.1895 6.50263 95.6293 6.26462 95.2165 5.84765C94.8036 5.43068 94.5712 4.86815 94.5693 4.28138Z" fill="#FBB516"></path><path d="M57.2065 4.28138C57.2142 3.69845 57.4491 3.14153 57.8614 2.7293C58.2736 2.31707 58.8305 2.08211 59.4134 2.07449C60.0017 2.07449 60.5658 2.30816 60.9818 2.7241C61.3977 3.14005 61.6314 3.70418 61.6314 4.29242C61.6314 4.88065 61.3977 5.44479 60.9818 5.86073C60.5658 6.27667 60.0017 6.51035 59.4134 6.51035C58.8267 6.50263 58.2665 6.26462 57.8537 5.84765C57.4408 5.43068 57.2084 4.86815 57.2065 4.28138Z" fill="#FBB516"></path><path d="M61.2341 8.51126H57.6516V24.9857H61.2341V8.51126Z" fill="#012C3D"></path><path d="M74.8874 8.09196C73.7882 8.10118 72.7035 8.3429 71.7044 8.80123C70.7053 9.25957 69.8145 9.92414 69.0906 10.7513V8.51127H65.5081V24.9894H69.0906V13.4915C69.5806 12.8254 70.2166 12.2803 70.9497 11.8978C71.6829 11.5152 72.4938 11.3055 73.3205 11.2846C75.3324 11.2846 76.6308 12.1379 76.6308 14.6979V24.9968H80.2133V13.3885C80.2097 10.012 78.4441 8.09196 74.8874 8.09196Z" fill="#012C3D"></path><path d="M88.9416 8.51126V7.59172C88.9416 5.75264 89.828 4.82942 91.2257 4.82942C91.7302 4.80254 92.2309 4.93091 92.6602 5.19724L93.4437 2.53425C92.5583 2.08499 91.5744 1.86494 90.5821 1.89425C87.5476 1.89425 85.3627 3.9062 85.3627 7.59172V8.51126H82.6335V11.6487H85.3627V24.9894H88.9453V11.6487H95.0179V24.9894H98.6004V8.51126H88.9416Z" fill="#012C3D"></path><path d="M112.327 8.09196C111.228 8.10159 110.143 8.34348 109.143 8.80177C108.143 9.26006 107.252 9.9244 106.527 10.7513V8.51127H102.944V24.9894H106.527V13.4915C107.017 12.8256 107.653 12.2806 108.386 11.8981C109.119 11.5156 109.93 11.3058 110.757 11.2846C112.769 11.2846 114.067 12.1379 114.067 14.6979V24.9968H117.646V13.3885C117.646 10.012 115.873 8.09196 112.327 8.09196Z" fill="#012C3D"></path><path d="M125.433 8.51126H121.85V24.9857H125.433V8.51126Z" fill="#012C3D"></path><path d="M135.651 22.2234C134.628 22.2234 134.084 21.4069 134.084 20.2814V11.6487H137.427V8.51126H134.084V4.00919H130.501V8.51126H127.772V11.6487H130.501V21.1678C130.501 23.897 131.972 25.3977 134.731 25.3977C136.401 25.3977 137.46 24.9526 138.108 24.3384L137.254 21.646C136.813 22.0352 136.239 22.2417 135.651 22.2234Z" fill="#012C3D"></path><path d="M152.445 8.51126L147.634 20.8588L142.812 8.51126H139.005L145.755 25.1917L144.938 27.0676C144.46 28.171 143.709 28.5021 142.584 28.5021C142.116 28.4966 141.653 28.4043 141.219 28.2299L140.671 31.4336C141.334 31.58 142.009 31.66 142.687 31.6726C145.247 31.6322 147.226 30.7531 148.351 27.954L156.3 8.51126H152.445Z" fill="#012C3D"></path><path d="M45.8705 7.38207L47.2829 8.93057L50.4056 6.08735C49.1829 4.32786 47.5538 2.88926 45.6565 1.89357C43.7593 0.897884 41.6499 0.374498 39.5072 0.367813C36.2712 0.359949 33.1539 1.58584 30.79 3.79586C28.3845 6.00276 26.5822 9.03724 24.8056 11.9761C23.2277 14.6097 21.5946 17.3352 19.5937 19.3582C18.0047 20.9655 15.8199 21.7747 13.0981 21.7747C10.8163 21.7747 8.62807 20.8683 7.01466 19.2549C5.40124 17.6415 4.49483 15.4532 4.49483 13.1715C4.49483 10.8898 5.40124 8.70151 7.01466 7.0881C8.62807 5.47468 10.8163 4.56827 13.0981 4.56827C17.1109 4.56827 19.796 7.5108 20.7413 8.73563L23.0401 5.02804C21.6704 3.35669 19.9004 2.05873 17.8946 1.25481C15.8888 0.450884 13.7123 0.167091 11.5674 0.429803C9.42249 0.692516 7.37882 1.49321 5.62633 2.75746C3.87384 4.02171 2.46939 5.70849 1.54354 7.66101C0.617684 9.61354 0.200466 11.7684 0.330663 13.9254C0.46086 16.0824 1.13425 18.1715 2.28824 19.9985C3.44222 21.8255 5.03936 23.3311 6.9312 24.3753C8.82303 25.4196 10.9482 25.9687 13.1091 25.9715C16.938 25.9715 20.2116 24.7062 22.584 22.2933C24.9564 19.8805 26.6962 16.9821 28.4213 14.1352C30.1463 11.2883 31.6875 8.68413 33.6553 6.88184C34.488 6.10473 35.4667 5.5007 36.5347 5.10479C37.6026 4.70889 38.7386 4.52898 39.8766 4.57552C41.0146 4.62205 42.1321 4.8941 43.1642 5.37587C44.1962 5.85765 45.1224 6.53957 45.8889 7.38207H45.8705Z" fill="#FBB516"></path><path d="M38.5287 12.0497V16.2464H47.5476L47.4372 16.5149C46.7812 18.0766 45.6778 19.4092 44.2661 20.3451C42.8543 21.2811 41.1973 21.7785 39.5034 21.7747C38.4 21.7747 36.6381 21.4069 34.354 19.5678C33.604 18.9672 32.9052 18.3053 32.2648 17.589L29.9329 21.3885C31.1761 22.8598 34.4349 25.9715 39.4961 25.9715C42.6839 26.0343 45.7783 24.8929 48.1618 22.7752C50.1578 21.0462 51.5527 18.7278 52.1453 16.1545C52.4849 14.8106 52.5895 13.4181 52.4542 12.0386L38.5287 12.0497Z" fill="#FBB516"></path><path d="M161.839 10.7121C161.839 11.0128 161.782 11.2973 161.668 11.5656C161.555 11.8338 161.398 12.0695 161.199 12.2727C161 12.4719 160.764 12.6304 160.492 12.7483C160.224 12.8661 159.935 12.9251 159.626 12.9251C159.317 12.9251 159.029 12.8682 158.76 12.7544C158.492 12.6365 158.258 12.478 158.059 12.2788C157.864 12.0797 157.71 11.846 157.596 11.5778C157.482 11.3095 157.425 11.025 157.425 10.7243C157.425 10.4235 157.482 10.139 157.596 9.87077C157.71 9.60252 157.866 9.36883 158.065 9.16968C158.265 8.96647 158.498 8.80593 158.767 8.68806C159.039 8.5702 159.329 8.51127 159.638 8.51127C159.947 8.51127 160.236 8.5702 160.504 8.68806C160.772 8.80186 161.004 8.95834 161.199 9.15749C161.398 9.35664 161.555 9.59033 161.668 9.85857C161.782 10.1268 161.839 10.4113 161.839 10.7121ZM161.607 10.7121C161.607 10.4398 161.557 10.1837 161.455 9.94392C161.357 9.70007 161.219 9.48872 161.04 9.3099C160.866 9.13107 160.658 8.99085 160.419 8.88925C160.179 8.78357 159.919 8.73074 159.638 8.73074C159.358 8.73074 159.096 8.78357 158.852 8.88925C158.612 8.99492 158.403 9.13717 158.224 9.31599C158.049 9.49482 157.911 9.70616 157.809 9.95002C157.708 10.1939 157.657 10.452 157.657 10.7243C157.657 11.0006 157.706 11.2587 157.803 11.4985C157.905 11.7383 158.043 11.9476 158.218 12.1264C158.397 12.3053 158.606 12.4475 158.846 12.5532C159.086 12.6548 159.346 12.7056 159.626 12.7056C159.907 12.7056 160.167 12.6528 160.406 12.5471C160.65 12.4414 160.86 12.2992 161.034 12.1203C161.213 11.9415 161.353 11.7322 161.455 11.4924C161.557 11.2486 161.607 10.9884 161.607 10.7121ZM160.662 10.2365C160.662 10.4276 160.612 10.582 160.51 10.6999C160.413 10.8137 160.285 10.8929 160.126 10.9376L160.748 11.8094H160.224L159.663 11.0108H159.181V11.8094H158.742V9.49889H159.772C160.041 9.49889 160.256 9.56391 160.419 9.69397C160.581 9.82403 160.662 10.0049 160.662 10.2365ZM160.211 10.2609C160.211 10.1431 160.171 10.0537 160.089 9.99269C160.008 9.92767 159.896 9.89515 159.754 9.89515H159.181V10.6267H159.754C159.896 10.6267 160.008 10.5942 160.089 10.5292C160.171 10.4641 160.211 10.3747 160.211 10.2609Z" fill="#012C3D">
</path>
</svg>